<svg id="visual" viewBox="0 0 1920 1080" width="1920" height="1080" xmlns="http://www.w3.org/2000/svg" xmlns:xlink="http://www.w3.org/1999/xlink" version="1.1"><path d="M0 239L640 314L1280 433L1920 303L1920 0L1280 0L640 0L0 0Z" fill="#83f6d4"></path><path d="M0 444L640 444L1280 638L1920 476L1920 301L1280 431L640 312L0 237Z" fill="#65e2c4"></path><path d="M0 854L640 800L1280 930L1920 908L1920 474L1280 636L640 442L0 442Z" fill="#43ceb4"></path><path d="M0 1081L640 1081L1280 1081L1920 1081L1920 906L1280 928L640 798L0 852Z" fill="#07baa5"></path></svg>